<?xml version="1.0" standalone="no"?><!DOCTYPE svg PUBLIC "-//W3C//DTD SVG 1.1//EN" "http://www.w3.org/Graphics/SVG/1.1/DTD/svg11.dtd"><svg t="1644289986299" class="icon" viewBox="0 0 1024 1024" version="1.1" xmlns="http://www.w3.org/2000/svg" p-id="2267" xmlns:xlink="http://www.w3.org/1999/xlink" width="200" height="200"><defs><style type="text/css"></style></defs><path d="M832 0H256C185.308 0 128 57.308 128 128v96H64v64h64v128H64v64h64v96H64v64h64v96H64v64h64v96c0 70.692 57.308 128 128 128h576c70.692 0 128-57.308 128-128V128C960 57.308 902.692 0 832 0zM704 960H256c-35.346 0-64-28.654-64-64v-96h64v-64h-64v-96h64v-64h-64v-96h64v-64h-64V288h64v-64h-64v-96c0-35.346 28.654-64 64-64h448v896z m192-64c0 35.346-28.654 64-64 64h-64V64h64c35.346 0 64 28.654 64 64v768z" fill="#514050" p-id="2268"></path></svg>